<svg t="1643164192204" class="icon" viewBox="0 0 1024 1024" version="1.1" xmlns="http://www.w3.org/2000/svg" p-id="27344" width="32" height="32"><path d="M896.0512 384.256l-259.4816-259.4816c-69.7344-69.7344-182.784-69.7344-252.5184 0L124.5696 384.256c-69.7344 69.7344-69.7344 182.784 0 252.5184l259.4816 259.4816c69.7344 69.7344 182.784 69.7344 252.5184 0l259.4816-259.4816c69.7344-69.7344 69.7344-182.784 0-252.5184z" fill="#F55651" p-id="27345"></path><path d="M734.5152 533.76c-14.5408-16.1792-30.7712-30.7712-44.4928-38.8608s-42.0864-10.496-72.2944 0c-30.208 10.496-102.2464 43.1616-113.8176 46.3872-11.6224 3.2256-14.2848 5.4784-10.496 13.1072 3.7888 7.6288 12.9536 30.0544 34.2528 29.4912v22.6816s0.2048 5.9392-11.6224 8.4992-26.2656 4.864-24.5248 14.5408c1.7408 9.728 10.3936 32.256 21.9648 37.376 11.6224 5.12 15.104 4.3008 18.7392 4.1984 3.6352-0.1536 8.9088 11.4688 4.3008 17.152-4.608 5.6832-9.8304 7.68-14.0288 9.1648-4.1984 1.4848-9.5744 5.376-19.712-12.288s-30.8736-64.4608-32.512-124.3648c-0.4096-15.36 6.4512-22.272 30.3616-35.584 23.8592-13.3632 68.7616-31.5392 80.5376-35.584 11.7248-4.0448 18.2272-8.9088 12.544-23.04-5.6832-14.1824-3.2256-15.7696 6.4512-21.0432 9.728-5.2736 43.4176-27.8016 55.808-44.4928 12.3904-16.7424 3.2256-30.7712-4.864-41.2672-8.0896-10.496-22.9376-36.9664-65.28-18.3296-42.3424 18.5856-59.0848 27.2384-64.4608 29.952-5.376 2.7136-12.1344 3.7888 3.4816-13.2096 15.6672-16.9984 43.8784-38.8608 91.0336-50.3808 9.5232-2.4064 30.976-11.3152 28.5184-26.7264s-24.6272-39.424-41.8816-41.8816c-17.2544-2.4064-24.832-2.1504-49.3568 9.984-24.5248 12.1344-61.2352 33.7408-68.5056 36.9664-7.2704 3.2256-8.0896 3.7888-5.9392 17.8176 2.1504 14.0288 4.864 34.2528 24.832 43.1616 9.728 2.7136 9.728 15.104 2.1504 23.4496-7.5264 8.3456-17.2544 17.5104-17.5104 20.48-0.256 2.9696-11.6224-7.0144-20.48-3.7888-3.4816-8.0896-19.968-26.7264-36.4032-17.8176-16.4352 8.9088-35.584 23.1936-41.2672 28.5696-5.6832 5.376-12.3904 6.4512 0.256-12.6976 12.6976-19.1488 22.3744-22.6816 43.9808-29.952 21.5552-7.2704 34.2528-29.952 21.2992-45.8752-12.9536-15.9232-27.4944-24.0128-35.584-40.448s-26.7264-15.9232-39.1168-2.9696c0 0-12.1344 13.4656-17.5104 19.1488-5.376 5.6832-11.3152 15.6672-3.2256 32.3584 8.0896 16.7424 15.36 24.2688 18.5856 28.3136 3.2256 4.0448 6.4512 12.3904 3.2256 26.7264-3.2256 14.2848-16.7424 46.9504-46.1312 70.9632-29.3888 24.0128-73.3696 54.2208-80.896 58.2656-7.5264 4.0448-12.1344 7.0144-4.864 15.104 7.2704 8.0896 27.4944 30.0544 39.6288 37.376 12.1344 7.3728 18.5856 4.9664 28.5696-5.8368 9.984-10.8032 35.072-43.4176 39.936-46.6432 4.864-3.2256 4.3008 0.8192-1.3312 13.4656-5.6832 12.6976-37.6832 69.9392-48.0256 107.9808-10.2912 38.0416 2.048 57.4464 16.7936 60.2624 14.7456 2.816 37.4272-12.3392 48.3328-28.5184s14.9504-22.8352 16.7936-11.7248c1.8432 11.1104 2.5088 88.832 17.8688 113.408 15.36 24.576 36.4032 27.4944 41.5232-5.12 5.12-32.6144-13.2096-61.2352-17.5104-79.3088-4.3008-18.0736-9.1648-62.5664-5.6832-84.1728 1.6384-8.9088 3.7888-16.4352 5.9392-4.3008 2.1504 12.1344 7.5776 95.232 51.5072 142.4384 14.848 16.4352 31.0272 22.3744 44.4928 16.4352 13.4656-5.9392 43.1616-13.2096 59.5968 1.0752 16.4352 14.2848 56.6272 41.2672 81.4592 7.8336s59.5968-102.6048 68.9152-162.0992c7.3728-33.1264 10.24-39.6288-4.352-55.808z m-207.9232-109.6704c5.6832-5.3248 29.952-33.1264 52.1728-43.264 22.272-10.1376 33.9968 6.0928 14.9504 17.8176-18.9952 11.7248-65.1264 49.7664-72.8064 60.672-7.68 10.9056-14.5408 14.5408-14.5408 7.68 0-6.8608-10.6496-57.4464-10.6496-57.4464 5.7344 21.6576 25.1904 19.8656 30.8736 14.5408zM463.4624 513.536s-24.2688 16.1792-30.7712 21.8624c-6.4512 5.6832-4.864-0.8192-2.048-31.1296 2.816-30.3616 26.3168-80.128 32.768-89.3952 6.4512-9.3184 5.6832 5.2736 12.544 21.4528s32.1024 60.2624 19.712 74.4448c-12.4416 14.1824-39.5264 33.9968-54.4768 38.4512 8.9088-12.9536 22.6816-30.7712 28.7232-35.9936 6.0928-5.3248-6.4512 0.3072-6.4512 0.3072z m163.1744 170.1888c-5.6832 8.6528-12.1344 7.2704-16.8448 5.12-4.7104-2.1504-6.0416-5.6832-14.9504-5.9392-8.9088-0.256-10.24-0.8192-9.984-4.608 0.256-3.7888 1.8944-6.1952 4.0448-16.7424 2.1504-10.496 5.12-15.36 10.24-18.0736 5.12-2.7136 35.072-2.9696 35.584-24.0128 0.5632-21.0432-24.832-25.6-35.072-26.7264-10.24-1.0752-9.4208-8.9088-9.4208-13.7728s0.1024-9.984 0-14.5408c-0.1024-4.864-4.864-8.6528-0.256-11.3152 4.608-2.7136 9.1648-6.4512 31.5392-7.2704 22.3744-0.8192 26.9824 16.4352 31.0272 50.688 4.0448 34.3552-20.224 78.592-25.9072 87.1936z" fill="#FACF5D" p-id="27346"></path><path d="M570.2144 251.9552s26.1632-3.7376 41.8304 25.1392c1.9456 4.9152 4.7104 18.0224-10.8032 28.416-2.9184 1.9456 1.1776 3.584-1.4848 6.8608a235.52 235.52 0 0 1 16.1792-4.608c9.5232-2.4064 30.976-11.3152 28.5184-26.7264s-24.6272-39.424-41.8816-41.8816c-17.2544-2.4064-24.832-2.1504-49.3568 9.984-1.0752 0.512-3.9936 4.9664-5.12 5.5296l22.1184-2.7136zM427.0592 588.2368c0.512-2.9184 1.1264-5.632 1.7408-7.6288 0.512-4.0448 1.1264-6.7584 1.8944-7.5776 4.4032-4.9152 7.8336-12.7488 7.8336-21.0944 0-5.9392 4.7616-12.2368 7.8336-10.0864 8.3968-11.6224 18.6368-24.4224 23.6032-28.7744 6.0928-5.2736-6.4512 0.4096-6.4512 0.4096s-24.2688 16.1792-30.7712 21.8624c-6.4512 5.6832-4.864-0.8192-2.048-31.1296 2.816-30.3616 26.3168-80.128 32.768-89.3952 6.4512-9.3184 5.6832 5.2736 12.544 21.4528 2.9696 7.0144 9.3696 19.2512 14.6944 32l11.0592-2.56-3.072-41.6256-10.4448-32.9728c-0.256 2.9696-11.6224-7.0144-20.48-3.7888-3.5328-8.0896-19.968-26.7264-36.4032-17.8176-13.2608 7.168-28.3136 17.8688-36.608 24.576l-10.0864 12.1344s48.2816-17.664 53.504-13.056c5.2224 4.5568-11.1104 32.0512-18.2784 50.3296-7.168 18.2784-21.0944 76.1344-18.1248 93.7984 2.9184 17.664 10.1888 22.528 10.1888 22.528s-15.7696 27.648-12.3392 56.064c3.4304 28.416 9.0112 68.1472 17.3056 91.648 8.3456 23.552 16.1792 51.3024 6.8608 57.1904 1.792 7.936 12.3904 11.3664 17.8176 7.3728 0.6656-0.6144 1.28-1.3312 1.8944-2.0992 0.1024-0.1536 0.256-0.256 0.3584-0.4096 0.0512-0.0512 0.0512-0.1024 0.1024-0.1536 3.84-7.8336-0.7168-59.0848-9.4208-90.9312v-0.0512c-0.7168-2.0992-1.3312-4.1472-1.792-5.9904-4.352-18.1248-9.216-62.6176-5.6832-84.224zM670.0544 751.7184c24.832-33.4336 59.5968-102.6048 68.9152-162.0992 7.2704-33.1776 10.1376-39.6288-4.4544-55.808-14.5408-16.1792-30.7712-30.7712-44.4928-38.8608-13.7728-8.0896-42.0864-10.496-72.2944 0-1.28 0.4608-9.6256 11.4176-11.1104 11.9296 0.1024 0 52.6336-3.7376 75.4688 19.0976 22.8864 22.8864 34.1504 35.4304 22.3744 77.8752-11.776 42.496-29.0816 88.6272-44.8 108.2368-15.6672 19.6096-20.2752 37.888-52.9408 11.1104s-69.2736-13.7216-81.0496-6.5536c-11.7248 7.168-42.3424 5.632-57.4464-11.8272 4.7104 7.6288 10.0352 14.8992 16.1792 21.4528 14.848 16.4352 31.0272 22.3744 44.4928 16.4352 13.4656-5.9392 43.1616-13.2096 59.5968 1.0752 16.5888 14.3872 56.7808 41.3696 81.5616 7.936zM402.2272 290.5088c5.888 20.2752 32.0512 27.4432 32.0512 32.6656 0 5.2224 6.0928 27.904-10.3936 35.8912 3.1744-1.1776 6.656-2.3552 10.496-3.6352 21.5552-7.2704 34.2528-29.952 21.2992-45.8752-12.9536-15.9232-27.4944-24.0128-35.584-40.448-5.0176-10.1888-14.0288-13.824-23.0912-12.0832l-12.2368 11.8784c-0.1024 0.0512 11.5712 1.3824 17.4592 21.6064zM656.0256 401.0496c12.3904-16.7424 3.2256-30.7712-4.864-41.2672-8.0896-10.496-22.9376-36.9664-65.28-18.3296-1.1264 0.512-2.2016 0.9728-3.2768 1.4336-1.5872 3.6864-2.4576 6.144-2.4576 6.144s26.9824-6.8608 42.6496 13.2608 7.8336 27.9552 0.512 37.2736c-7.3728 9.3184-52.9408 30.8736-61.2864 47.5648-8.3456 16.6912 6.1952 43.4688 6.1952 43.4688l15.7696-1.9456c9.8816-3.8912 14.8992-9.0112 9.728-21.9648-5.6832-14.1824-3.2256-15.7696 6.4512-21.0432 9.728-5.3248 43.4688-27.8528 55.8592-44.5952zM498.0224 648.448c-1.8944-8.4992-3.5328-16.896-4.9152-24.9344-1.3824 1.6384-2.048 3.6864-1.5872 6.1952 0.8192 4.4544 3.1232 11.7248 6.5024 18.7392z" fill="#F8B031" p-id="27347"></path><path d="M499.3536 685.2096c-10.1376-17.664-30.8736-64.4608-32.512-124.3648-0.3072-10.9056 3.1232-17.5616 13.6704-25.2416l-0.5632-13.0048c-10.8544 9.3184-24.3712 18.6368-35.0208 23.6544 0.1536 0.8192 0.3072 1.792 0.3584 2.8672 0.9728 14.592 4.4032 68.0448 20.5824 108.6976 16.1792 40.704 22.1184 62.2592 55.1936 51.3024-1.3312-3.3792-11.7248-9.0112-12.9024-12.4928-2.4576-1.8944-5.376-5.376-8.8064-11.4176z" fill="#F8B031" p-id="27348"></path><path d="M432.7424 785.9712c-11.4176 0-23.1424-8.3968-32.7168-23.7056-12.1344-19.3536-15.7184-61.8496-18.0736-100.5056-12.9024 18.4832-38.4512 35.7888-58.1632 32-8.7552-1.6896-16.4352-7.1168-21.5552-15.36-5.9904-9.5744-11.4176-27.392-3.1744-57.6512 5.2736-19.5072 15.7696-43.2128 25.856-64.0512-9.8816 10.3936-21.7088 17.92-40.3968 6.5536-12.5952-7.6288-31.6928-27.904-41.9328-39.3216-1.8432-2.048-7.4752-8.2944-6.0928-16.3328 1.4336-8.0896 8.4992-11.8784 13.7216-14.6432 6.2976-3.3792 49.2544-32.6144 79.2576-57.1904 27.0336-22.0672 39.68-52.3264 42.5984-65.28 2.7648-12.2368-0.5632-17.152-1.2288-18.0224l-1.4336-1.7408c-3.7888-4.5568-10.9056-13.0048-18.3808-28.5184-8.0896-16.7424-6.3488-31.9488 5.0176-43.8784 5.2224-5.4784 17.2032-18.7904 17.3568-18.944 9.3184-9.728 21.4016-14.336 32.6144-12.5952 10.0864 1.536 18.3808 7.936 23.296 17.8688 4.096 8.3456 10.496 14.4384 17.9712 21.4528 5.12 4.8128 10.9056 10.2912 16.384 17.0496 7.1168 8.7552 9.2672 19.6096 6.0928 30.5664-2.8672 9.8816-9.728 18.7392-18.9952 24.9856 9.8304 3.4304 17.7664 11.1104 22.4768 17.7664 3.9936 0.256 7.68 1.4336 10.7008 2.6624 1.9968-2.3552 4.5568-5.0688 7.8336-8.4992 2.1504-2.2528 4.4032-4.608 6.4512-6.912 2.7136-3.0208 3.0208-6.1952 2.6624-6.912-0.512-0.1536-0.9216-0.1024-1.3824-0.3072-24.6272-11.008-28.3648-35.4304-30.6176-50.0736l-0.1536-0.8704c-2.3552-15.2576-1.9456-22.5792 11.8784-28.7232 2.6624-1.1776 11.5712-6.144 20.992-11.4176 14.592-8.1408 32.7168-18.2272 47.1552-25.3952 25.6-12.6464 35.2768-13.7728 55.3472-10.9568 22.4256 3.1744 47.5136 31.0784 50.5856 50.432 3.4816 22.016-21.0432 34.3552-36.096 38.1952-23.552 5.7856-41.984 14.1312-56.32 23.04 5.8368-2.6112 12.3392-5.5296 19.6096-8.704 46.6944-20.48 67.0208 7.2192 75.6736 19.0464 0.6656 0.8704 1.2288 1.6896 1.792 2.4576 6.8096 8.8576 22.784 29.5936 4.9664 53.6064-14.2848 19.2512-50.688 42.8032-59.1872 47.4112-1.1264 0.6144-2.7648 1.4848-3.8912 2.2016 0.256 1.0752 0.8192 2.9184 2.048 5.9904 3.4304 8.5504 3.7376 15.7184 0.9216 21.8624a21.504 21.504 0 0 1-4.096 5.9392c5.3248-2.0992 10.1888-3.8912 14.2848-5.3248 34.4576-11.9808 65.4336-8.2432 80.8448 0.8704 13.9776 8.192 30.6176 22.6816 46.9504 40.8064 17.0496 18.944 14.4896 30.464 8.2944 58.2656l-1.4336 6.3488c-9.216 58.5216-43.3152 129.3312-70.7584 166.2976-8.7552 11.776-19.8656 18.4832-33.0752 19.9168-26.7264 2.8672-53.1968-17.3056-63.3344-26.112-11.6224-10.0864-36.096-5.0176-48.7936 0.5632-17.8176 7.8336-38.2976 0.9216-56.2176-18.9952-9.5232-10.24-17.3056-22.016-23.7056-34.3552 5.5296 15.4112 10.3936 34.1504 7.168 54.4256-3.8912 24.7296-16.0256 30.8224-22.9376 32.2048-1.536 0.3584-3.072 0.512-4.6592 0.512z m-45.1072-158.3616c0.9216 0 1.8944 0.1024 2.9184 0.3584 8.448 1.8432 9.9328 10.8544 10.4448 13.824 0.4608 2.8672 0.768 7.8336 1.3312 17.152 1.4848 24.5248 4.5568 75.6224 15.104 92.5184 7.2704 11.6224 13.8752 14.4896 15.9232 14.0288 1.8432-0.3584 5.1712-4.7616 6.8096-15.36 3.2256-20.6336-4.5056-40.3968-10.752-56.2688-2.7136-6.8096-5.2224-13.2608-6.6048-19.0976-4.7616-19.968-9.5232-65.3312-5.8368-88.1664 1.4848-8.2432 3.4816-19.2512 13.6704-19.2512h0.0512c9.8304 0 11.7248 10.752 12.4416 14.7456 0.256 1.4848 0.6144 4.0448 1.024 7.3728 2.7648 22.3744 11.264 90.5216 47.9232 129.8432 11.7248 13.056 23.7056 18.1248 32.8704 14.08 16.5888-7.3216 50.1248-14.9504 70.4512 2.7136 6.3488 5.5296 28.5696 23.296 47.6672 21.1968 7.424-0.8192 13.568-4.6592 18.8416-11.7248 26.0096-35.072 58.368-102.2464 67.0208-157.5936 0.0512-0.2048 0.0512-0.4096 0.1024-0.6144l1.4848-6.7072c5.9904-26.7776 6.4512-28.9792-3.5328-40.0896-14.7456-16.3328-30.0544-29.7984-42.0864-36.864-11.3152-6.656-36.864-8.4992-63.744 0.8704-15.9744 5.5808-43.9808 17.5104-68.7104 28.0064-25.3952 10.8032-39.9872 16.9984-45.7216 18.5856-1.2288 0.3584-2.2016 0.6144-3.0208 0.9216 5.4272 11.264 12.032 21.6064 23.296 21.6064h0.7168a10.24 10.24 0 0 1 10.24 10.24v22.6816c0.0512 1.1264-0.0512 14.2336-19.712 18.4832l-2.56 0.5632c-3.8912 0.8192-10.752 2.2528-13.7216 3.7888 2.2528 9.9328 9.6768 25.5488 15.7184 28.2112 8.2432 3.6352 10.6496 3.4816 13.0048 3.3792l1.2288-0.0512c5.6832-0.2048 10.6496 3.3792 13.8752 9.7792 3.2256 6.4512 4.8128 16.5888-1.1776 24.0128-6.5536 8.1408-14.3872 10.9056-18.5344 12.3904l-0.7168 0.256c-12.3392 4.8128-21.7088-0.3072-31.3344-17.1008-5.3248-9.3184-31.9488-59.2384-33.8432-129.1776-0.1024-3.584 0.2048-6.8608 0.8192-9.8816-6.0928 3.5328-11.8784 6.2464-16.7936 7.68a10.24 10.24 0 0 1-11.2128-3.7888c-1.6896-2.304-2.2528-5.0688-1.792-7.7312-2.2528 0.3072-4.4544-0.0512-6.6048-1.1776-7.8336-4.0448-7.2192-10.3936-5.12-31.488 0.3072-3.3792 0.7168-7.168 1.1264-11.4688 3.072-32.7168 27.392-84.0192 34.56-94.3104 3.9424-5.632 8.5504-7.9872 13.7216-7.1168 8.0384 1.3824 10.1376 9.0624 12.1344 16.4864 1.0752 3.9936 2.4064 9.0112 4.5056 13.9264 1.1776 2.7648 2.8672 6.2976 4.864 10.3936 0.9728 1.9968 1.8944 3.9424 2.816 5.9392-1.9968-10.6496-4.7616-24.2688-7.424-36.9152-0.8192-3.7888 0.6144-7.4752 3.328-9.8304-3.6352 0.4096-7.0144-1.1264-9.6256-2.3552-1.6384-0.768-6.6048-3.072-8.0896-2.56-5.0176 1.6896-10.752-0.6656-12.9024-5.5296-1.4848-3.4304-7.7312-11.0592-14.4384-13.3632-2.8672-1.024-5.2736-0.8704-7.7312 0.4608-16.0768 8.704-34.2528 22.3744-39.0656 26.9824-9.6768 9.216-16.7424 6.0416-19.5072 4.096-8.0384 13.9776-19.5584 29.1328-35.328 41.984-30.0032 24.4736-74.496 55.04-82.5856 59.3408-0.2048 0.1024-0.5632 0.3072-0.9216 0.512 15.4624 17.0496 28.928 29.7984 36.1984 34.2016 6.4 3.84 7.68 4.6592 15.7696-4.0448 3.9936-4.3008 10.9056-12.7488 17.5616-20.8896 15.5648-19.0464 20.6336-24.9344 24.2176-27.3408 7.7824-5.1712 13.2608-1.8432 15.2576-0.2048 7.424 6.2976 3.072 16.0256-1.536 26.368-1.4336 3.1744-4.096 8.3968-7.7824 15.616-11.2128 21.8624-32.0512 62.6176-39.68 90.8288-4.8128 17.8176-4.5568 32.9216 0.8192 41.472 2.0992 3.3792 4.9152 5.4784 8.0384 6.0928 8.5504 1.6384 27.8016-9.1648 37.9392-24.2176l1.4848-2.1504c8.2944-12.544 13.056-19.5584 20.4288-19.5584z m122.1632 48.9472c0.9216 1.7408 1.5872 2.9696 1.9456 3.584 2.9696 5.2224 4.9664 7.3728 5.9392 8.2432 0.0512 0 0.1024-0.0512 0.1536-0.0512l1.28-0.512c3.584-1.28 6.4-2.4576 9.0112-5.376 0-0.256-0.0512-0.6144-0.1536-0.9216-4.2496-0.1536-9.472-1.1264-18.176-4.9664z m-27.9552-124.2624c-1.28 2.6112-1.3824 5.1712-1.28 8.2944 0.5632 19.8656 3.2768 38.144 6.9632 54.0672 6.656-5.4272 16.9984-7.5776 23.9104-9.0624l2.4576-0.512c1.7408-0.3584 2.8672-0.8192 3.584-1.1264v-10.9568c-19.2512-4.9664-28.5696-24.3712-32.4096-32.4096l-0.768-1.6384c-0.9728-1.792-1.9968-4.096-2.4576-6.656z m35.584 54.016v0.6144-0.6144z m-95.1808-23.5008z m42.1888-148.1728c-8.8576 18.4832-21.6064 49.8688-23.552 70.5536-0.4096 4.352-0.768 8.192-1.1264 11.5712 0 0.2048-0.0512 0.4096-0.0512 0.6144 8.0896-5.6832 16.5888-11.3664 18.0736-12.3904 0.4608-0.3072 0.9728-0.5632 1.4848-0.8192 5.8368-2.6624 15.5648-7.0144 20.9408 1.3312 0.512 0.8192 1.4336 2.5088 1.6384 4.7616 2.304-2.2016 4.4032-4.3008 6.1952-6.3488 2.6112-3.0208 1.9456-14.5408-16.1792-52.4288-2.1504-4.4032-3.9424-8.2944-5.2224-11.264-0.8704-1.8432-1.5872-3.7376-2.2016-5.5808z m41.5232 45.8752c3.4304 11.3664 4.5568 21.4528 1.7408 29.5424 24.8832-12.3904 59.0848-26.2144 70.144-30.0032 6.656-2.304 7.5776-3.6864 7.68-3.84 0 0 0.4096-1.4336-1.28-5.7344-7.7824-19.456-2.6112-26.4192 11.1104-33.8432 10.496-5.6832 41.8816-27.2896 52.48-41.6256 7.2704-9.7792 4.096-17.408-4.7616-28.928-0.6656-0.8704-1.3312-1.792-2.0992-2.816-8.1408-11.1104-19.3024-26.3168-50.944-12.3904-39.0656 17.152-56.1664 25.8048-62.6176 29.0304l-1.3824 0.6656c-7.9872 3.9936-13.056 2.816-16.128 0.6656-1.1264 1.1776-2.2016 2.3552-3.328 3.5328-2.9184 3.072-7.168 7.5264-8.5504 9.5232-0.6144 1.9968-1.792 3.7888-3.4304 5.12 4.9664-0.512 9.6768 2.6112 10.9568 7.5776 1.3824 5.2224 3.7888 8.5504 7.168 9.7792 3.0208 1.0752 6.0416 0.3584 6.912-0.2048 0.9216-0.8704 2.2528-2.2528 3.9936-4.0448 9.9328-10.2912 30.6688-31.744 50.8416-40.9088 18.5856-8.448 32.1536-2.6624 36.9664 6.2976 4.352 8.192 2.2528 20.5312-12.3392 29.5424-18.2784 11.264-63.2832 48.5888-69.8368 57.856-8.2944 11.776-15.9744 16.7424-23.296 15.2064z m5.8368-43.0592c0.9216 4.7616 1.792 9.4208 2.56 13.6192 12.5952-15.0528 56.7808-50.5344 73.984-61.184 1.1776-0.7168 2.0992-1.4336 2.7648-1.9968-1.8944 0.1024-4.608 0.6144-8.1408 2.2528-16.64 7.5776-35.5328 27.136-44.5952 36.5056-2.1504 2.2016-3.7888 3.8912-4.8128 4.864-5.12 4.864-13.568 7.0656-21.76 5.9392z m14.7968-13.3632z m-28.1088-32.0512z m-97.28-125.1328c-4.1984 0-9.0112 2.3552-12.9024 6.4-0.3072 0.3072-12.0832 13.4144-17.5104 19.1488-3.7888 3.9936-6.912 9.5232-1.4336 20.8384 6.4 13.2608 12.1856 20.1728 15.6672 24.32 0.6656 0.768 1.2288 1.4848 1.7408 2.0992 3.1744 3.9424 7.6288 12.0832 6.7072 25.7024 10.7008-10.496 21.8624-14.2336 37.5808-19.5584 9.3184-3.1232 16.7424-10.0864 18.944-17.7152 1.28-4.4544 0.512-8.4992-2.304-11.9808-4.6592-5.7344-9.728-10.496-14.592-15.104-8.1408-7.68-16.5376-15.616-22.272-27.2896-1.9456-3.8912-4.608-6.144-8.0384-6.7072-0.512-0.1536-1.024-0.1536-1.5872-0.1536z m106.0864 70.6048c5.7344 1.8432 10.1888 5.888 12.4416 11.264 16.64-17.2544 45.9776-39.2192 93.8496-50.944 9.0624-2.304 21.8112-9.0624 20.8384-15.1552-1.7408-11.1616-20.5824-31.5904-33.1776-33.3312-15.2064-2.1504-20.5824-2.2528-43.4176 9.0112-13.9776 6.912-31.8464 16.896-46.2336 24.8832-12.2368 6.8096-19.3024 10.752-22.6304 12.2368-0.256 0.1024-0.512 0.2048-0.8192 0.3584 0.1536 1.4848 0.4096 3.6352 0.8704 6.5024l0.1536 0.8704c2.304 15.7696 5.1712 28.2624 18.1248 34.304z m109.0048 363.2128c-3.4304 0-7.0656-0.8192-10.752-2.5088-2.304-1.024-3.9424-2.2016-5.2736-3.1232-1.9968-1.3824-2.6112-1.792-5.7344-1.8944-6.4-0.2048-12.4928-0.3584-16.64-5.0176-3.6864-4.096-3.328-8.96-3.2256-10.5472 0.2048-2.9184 0.8704-5.1712 1.6384-7.7824 0.7168-2.3552 1.536-5.2736 2.56-10.24 1.9456-9.3696 5.2736-19.712 15.5136-25.088 2.4064-1.28 5.2224-1.8432 9.0624-2.6112 13.2096-2.7136 20.8896-5.632 21.0432-12.5952 0.3072-11.7248-16.0768-15.2064-25.9072-16.2304-8.6016-0.9216-18.7904-5.632-18.5856-23.04l0.0512-5.888c0-3.1744 0.0512-6.3488 0-9.3184-0.1024-0.256-0.3584-0.768-0.5632-1.28-4.5056-11.264 1.3824-16.7936 5.3248-19.0976l0.8704-0.512c6.3488-3.84 13.8752-7.3728 35.4816-8.1408 34.5088-1.024 38.1952 31.1808 41.5744 59.7504 4.9664 42.1888-27.1872 93.44-27.4944 93.952-4.9664 7.3216-11.5712 11.2128-18.944 11.2128z m-19.5584-27.9552c8.1408 0.5632 12.3392 3.4816 15.2064 5.4784 0.9728 0.6656 1.536 1.024 2.0992 1.3312 1.5872 0.7168 2.1504 0.7168 2.2016 0.6656 0 0 0.7168-0.3584 1.8432-2.0992 3.2256-4.864 11.6224-20.1728 17.7664-38.0416-8.6528 7.7824-21.4016 10.3936-28.3136 11.8272-1.3824 0.256-3.1744 0.6656-3.9936 0.8704-1.0752 0.6656-2.9184 2.4064-4.6592 10.9056-0.768 3.9424-1.536 6.8096-2.1504 9.0624z m7.168-20.1728s-0.0512 0.0512 0 0c-0.0512 0.0512 0 0 0 0z m-3.4304-69.9904c0.1024 0 0.1536 0 0.256 0.0512 21.76 2.304 36.5568 11.0592 41.984 24.2688 0.1024-3.1232 0-6.1952-0.3584-9.1136-4.5568-38.4-9.5232-42.1376-20.48-41.6768-12.8 0.4608-18.6368 1.8432-22.1696 3.3792 0.4096 1.3824 0.6656 3.0208 0.7168 4.7616 0.1024 3.1744 0.0512 6.5536 0.0512 9.984l-0.0512 5.9392c0.0512 0.6656 0 1.6384 0.0512 2.4064z m-5.2736-20.6336l-0.0512 0.0512c0.0512 0 0.0512-0.0512 0.0512-0.0512z" fill="#4B2254" p-id="27349"></path><path d="M448 149.3504c56.6272-55.552 161.1776-28.5184 194.4576-17.9712l-5.12-5.12c-69.7344-69.7344-182.784-69.7344-252.5184 0L125.3376 385.7408c-69.7344 69.7344-69.7344 182.784 0 252.5184l259.4816 259.4816c63.8976 63.8976 164.096 69.1712 234.0864 16.0256-63.744 12.7488-121.2416 8.1408-173.5168-38.912s-197.376-193.4848-275.8144-269.312c-78.4384-75.8272-20.8896-160.768 0-181.504 20.8896-20.6336 210.432-208.0256 278.4256-274.688z" fill="#F67969" p-id="27350"></path><path d="M579.1232 149.3504c-56.6272-55.552-161.1776-28.5184-194.4576-17.9712l5.12-5.12c69.7344-69.7344 182.784-69.7344 252.5184 0l259.4816 259.4816c69.7344 69.7344 69.7344 182.784 0 252.5184l-259.4816 259.4816c-63.8976 63.8976-164.096 69.1712-234.0864 16.0256 63.744 12.7488 121.2416 8.1408 173.5168-38.912s197.376-193.4848 275.8144-269.312c78.4384-75.8272 20.8896-160.768 0-181.504-20.8896-20.6336-210.432-208.0256-278.4256-274.688z" fill="#E3413F" p-id="27351"></path><path d="M384.8192 126.2592L125.3376 385.7408a177.3824 177.3824 0 0 0-29.1328 38.3488h73.3696c20.9408-20.6848 210.4832-208.0768 278.4256-274.7392 56.6272-55.552 161.1776-28.5184 194.4576-17.9712l-5.12-5.12c-69.7344-69.7344-182.784-69.7344-252.5184 0z" fill="#F67969" p-id="27352"></path><path d="M511.0784 960.2048c-48.3328 0-96.6656-18.3808-133.4784-55.1936l-259.4816-259.4816c-35.6352-35.6352-55.296-83.0464-55.296-133.4784 0-50.432 19.6608-97.8432 55.296-133.4784l259.4816-259.4816c35.6352-35.6352 83.0464-55.296 133.4784-55.296s97.8432 19.6608 133.4784 55.296l259.4816 259.4816c35.6352 35.6352 55.296 83.0464 55.296 133.4784 0 50.432-19.6608 97.8432-55.296 133.4784l-259.4816 259.4816c-36.8128 36.7616-85.1456 55.1936-133.4784 55.1936z m0-876.032c-44.9536 0-87.2448 17.5104-119.04 49.3056L132.5568 392.96c-31.7952 31.7952-49.3056 74.0352-49.3056 119.04 0 44.9536 17.5104 87.2448 49.3056 119.04l259.4816 259.4816c65.6384 65.6384 172.3904 65.6384 238.0288 0l259.4816-259.4816c31.7952-31.7952 49.3056-74.0352 49.3056-119.04 0-44.9536-17.5104-87.2448-49.3056-119.04l-259.4816-259.4816c-31.7952-31.7952-74.0352-49.3056-118.9888-49.3056z" fill="#4B2254" p-id="27353"></path></svg>